<?xml version="1.0" encoding="iso-8859-1"?>
<!-- Generator: Adobe Illustrator 16.0.0, SVG Export Plug-In . SVG Version: 6.00 Build 0)  -->
<!DOCTYPE svg PUBLIC "-//W3C//DTD SVG 1.1//EN" "http://www.w3.org/Graphics/SVG/1.1/DTD/svg11.dtd">
<svg version="1.1" id="Capa_1" xmlns="http://www.w3.org/2000/svg" xmlns:xlink="http://www.w3.org/1999/xlink" x="0px" y="0px"
	 width="173.417px" height="173.418px" viewBox="0 0 173.417 173.418" style="enable-background:new 0 0 173.417 173.418;"
	 xml:space="preserve">
<g>
	<g>
		<path d="M173.417,124.908c0-9.526-38.829-3.447-86.709-3.447C38.826,121.461,0,115.382,0,124.908
			c0,6.315,17.091,14.852,42.496,19.907c-12.266,3.688-20.815,8.788-20.815,14.522c0,1.91,1.534,3.547,3.433,3.547
			c1.919,0,3.453-1.451,3.453-3.355c1.001-2.938,13.578-8.749,32.556-11.847c8.086,0.887,16.677,1.396,25.579,1.396
			c8.919,0,17.51-0.51,25.606-1.396c18.966,3.087,31.524,8.849,32.515,11.655c0,1.91,1.548,3.459,3.441,3.459
			c1.921,0,3.46-1.549,3.46-3.459c0-5.734-8.554-10.834-20.811-14.522C156.336,139.76,173.417,131.224,173.417,124.908z"/>
		<path d="M39.48,14.021c-2.3,0.619-3.663,2.982-3.047,5.286l19.825,74.027c0.465,1.698,1.887,2.885,3.535,3.136l4.505,16.82
			c0.246,0.925,1.188,1.467,2.118,1.222c0.915-0.247,1.459-1.188,1.219-2.113l-4.513-16.815c1.3-1.045,1.952-2.773,1.492-4.481
			l-19.841-74.02C44.149,14.774,41.773,13.406,39.48,14.021z"/>
		<path d="M133.944,14.021c-2.303-0.616-4.679,0.752-5.286,3.056l-19.843,74.02c-0.459,1.707,0.187,3.441,1.489,4.481l-4.52,16.814
			c-0.239,0.925,0.317,1.867,1.236,2.115c0.91,0.243,1.85-0.298,2.112-1.223l4.504-16.815c1.636-0.251,3.059-1.428,3.518-3.136
			l19.842-74.027C137.609,17.003,136.231,14.64,133.944,14.021z"/>
		<path d="M86.974,10.533c-2.386,0-4.325,1.932-4.313,4.312l-0.006,76.64c0,1.769,1.074,3.272,2.594,3.951l-0.018,17.406
			c0.014,0.957,0.786,1.724,1.738,1.724s1.726-0.767,1.736-1.724l-0.005-17.406c1.511-0.668,2.59-2.183,2.59-3.951v-76.64
			C91.291,12.465,89.352,10.533,86.974,10.533z"/>
	</g>
</g>
<g>
</g>
<g>
</g>
<g>
</g>
<g>
</g>
<g>
</g>
<g>
</g>
<g>
</g>
<g>
</g>
<g>
</g>
<g>
</g>
<g>
</g>
<g>
</g>
<g>
</g>
<g>
</g>
<g>
</g>
</svg>
