<?xml version="1.0" encoding="iso-8859-1"?>
<!-- Generator: Adobe Illustrator 18.0.0, SVG Export Plug-In . SVG Version: 6.00 Build 0)  -->
<!DOCTYPE svg PUBLIC "-//W3C//DTD SVG 1.1//EN" "http://www.w3.org/Graphics/SVG/1.1/DTD/svg11.dtd">
<svg version="1.1" id="Capa_1" xmlns="http://www.w3.org/2000/svg" xmlns:xlink="http://www.w3.org/1999/xlink" x="0px" y="0px"
	 viewBox="0 0 304.367 304.367" style="enable-background:new 0 0 304.367 304.367;" xml:space="preserve">
<g>
	<path style="fill:#b22222;"  d="M176.352,195.932c-11.553,4.32-22.803,5.328-35.088,5.398C152.004,205.964,167.781,204.229,176.352,195.932z"/>
	<path style="fill:#b22222;"  d="M127.322,177.169c-4.744,11.383-11.705,20.285-20.057,29.295C117.984,201.792,127.516,189.083,127.322,177.169z"/>
	<path  d="M302.411,61.366c1.497-1.589,2.19-3.772,1.886-5.932c-0.305-2.161-1.575-4.066-3.453-5.178l-42.909-25.41
		c-1.878-1.111-4.16-1.309-6.2-0.537c-2.041,0.772-3.621,2.429-4.294,4.505l-12.016,37.084l-38.096,57.436H7.184
		c-3.968,0-7.184,3.216-7.184,7.185c0,56.395,31.871,105.479,78.542,130.209v1.627c0,10.037,8.132,18.168,18.162,18.168h101.114
		c10.037,0,18.168-8.131,18.168-18.168v-1.631c46.668-24.73,78.536-73.813,78.536-130.205c0-3.969-3.216-7.185-7.184-7.185h-29.307
		l17.641-33.602L302.411,61.366z M187.432,211.385c-10.293,8.678-23.803,11.227-36.441,6.615c-9.01-3.291-15.613-9.93-17.678-12.014
		c0,0-3.688,2.938-8.172,4.775c-14.219,5.828-21.699,3.342-21.699,3.342s-1.465-1.969-4.512-9.869
		c-4.738-12.795,1.021-27.912,12.408-34.961c5.725-3.545,12.193-4.904,17.098-9.914c3.346-3.52,5.506-8.021,5.205-12.963
		c-0.125-2.049-0.475-4.098-0.727-6.133c7.658,11.787,14.023,24.91,13.26,39.387c-0.072,1.389-0.221,2.752-0.432,4.098
		c7.211-5.23,16.781-7.215,25.439-4.879c6.881,1.857,12.545,5.93,20.047,5.686c7.424-0.242,11.492-4.514,15.873-9.779
		C203.738,188.427,198.516,202.046,187.432,211.385z"/>
</g>
<g>
</g>
<g>
</g>
<g>
</g>
<g>
</g>
<g>
</g>
<g>
</g>
<g>
</g>
<g>
</g>
<g>
</g>
<g>
</g>
<g>
</g>
<g>
</g>
<g>
</g>
<g>
</g>
<g>
</g>
</svg>
