<svg height="512" viewBox="0 0 58 60" width="512" xmlns="http://www.w3.org/2000/svg"><g id="Page-1" fill="none" fill-rule="evenodd"><g id="021---Cafe" fill="rgb(0,0,0)" fill-rule="nonzero"><path id="Shape" d="m55.726 28.089c-1.6011719-.3995848-3.2244294.5690974-3.633 2.168l-1.093 4.098v-19.355c2.209139 0 4-1.790861 4-4v-3c-.0049703-.94309168-.4485088-1.83016879-1.2-2.4l-5.068-3.8c-1.5593256-1.16706647-3.4542992-1.79849049-5.402-1.8h-28.66c-1.9470631.00165415-3.841357.63308544-5.4 1.8l-5.07 3.8c-.75185538.56952881-1.19549018 1.45679841-1.2 2.4v3c0 2.209139 1.790861 4 4 4v19.355l-1.089-4.083c-.40620543-1.6063202-2.03767981-2.5792054-3.644-2.173s-2.57920543 2.0376798-2.173 3.644l4 14.984c.14384739.566829.45086427 1.0789874.883 1.473l-.977 10.71c-.0249745.2654479.05708881.5298782.22795953.7345475.17087072.2046694.41639895.3326289.68204047.3554525h.091c.5189652.0021057.95329702-.3931362 1-.91l.912-10.09h11.087c1.6568542 0 3 1.3431458 3 3v4.031c-.6458554.8553676-.9967562 1.897192-1 2.969 0 .5522847.4477153 1 1 1h16c.5522847 0 1-.4477153 1-1-.0032438-1.071808-.3541446-2.1136324-1-2.969v-4.031c0-1.6568542 1.3431458-3 3-3h11.087l.913 10.09c.046703.5168638.4810348.9121057 1 .91h.091c.2654616-.0230744.510736-.1511414.6813951-.355782.170659-.2046407.2525875-.4689292.2276049-.734218l-.973-10.7c.4318522-.3901784.7390046-.8990844.883-1.463l4-15.015c.1944303-.7727577.0734382-1.5911198-.3362855-2.2745553-.4097236-.6834356-1.0745126-1.1757882-1.8477145-1.3684447zm-18.726 18.911c0-1.1045695.8954305-2 2-2h9.161l-.072.272c-.1430328.5718124-.1131019 1.1732152.086 1.728zm14-34h-4c-1.1045695 0-2-.8954305-2-2v-2h8v2c0 1.1045695-.8954305 2-2 2zm-36-4h8v2c0 1.1045695-.8954305 2-2 2h-4c-1.1045695 0-2-.8954305-2-2zm10 0h8v2c0 1.1045695-.8954305 2-2 2h-4c-1.1045695 0-2-.8954305-2-2zm10 0h8v2c0 1.1045695-.8954305 2-2 2h-4c-1.1045695 0-2-.8954305-2-2zm-24.528-5.6c1.2117674-.90711947 2.6843149-1.39820247 4.198-1.4h28.66c1.5143811.00129453 2.9877184.49240694 4.2 1.4l4.8 3.6h-46.663zm-5.472 7.6v-2h8v2c0 1.1045695-.8954305 2-2 2h-4c-1.1045695 0-2-.8954305-2-2zm4 4h2c1.1487161.0006041 2.2419626-.4939077 3-1.357.7580374.8630923 1.8512839 1.3576041 3 1.357h4c1.1487161.0006041 2.2419626-.4939077 3-1.357.7580374.8630923 1.8512839 1.3576041 3 1.357h4c1.1487161.0006041 2.2419626-.4939077 3-1.357.7580374.8630923 1.8512839 1.3576041 3 1.357h4c1.1487161.0006041 2.2419626-.4939077 3-1.357.7580374.8630923 1.8512839 1.3576041 3 1.357h2v26.856l-.3 1.144h-9.7c-2.209139 0-4 1.790861-4 4 .0017133.7841383.4615033 1.4949361 1.176 1.818-.7544842.8890846-1.1709468 2.0159416-1.176 3.182v2.424c-.4992912-.2121068-1.0300135-.3408179-1.571-.381-.34-.415-1.429-2.199-1.429-8.043v-7h11v1c0 .5522847.4477153 1 1 1s1-.4477153 1-1v-4c0-1.6568542-1.3431458-3-3-3h-9.847l.674-4.717c.0820462-.5739979-.0890539-1.1553504-.468957-1.5933901-.3799031-.4380398-.931211-.6896457-1.511043-.6896099h-.286c.4636303-.9177817 1.048535-1.7690719 1.739-2.531 1.2421538.8913267 2.9469013.7527058 4.0287329-.3275949 1.0818316-1.0803006 1.2228666-2.7848501.3333-4.0282649s-2.5483485-1.6603353-3.9201048-.9852844c-1.3717564.6750509-2.0534163 2.243719-1.6109281 3.7071442-.5512283.5429837-1.0485516 1.1380973-1.485 1.777-.1708142-.9072999-.4477151-1.7913691-.825-2.634.1142338-.313616.1747493-.6442542.179-.978 0-1.6568542-1.3431458-3-3-3s-3 1.3431458-3 3 1.3431458 3 3 3c.4691382-.0029018.9308531-.1173879 1.347-.334.3272556 1.0848405.5302234 2.2033438.605 3.334h-.8c-.579832-.0000358-1.1311399.2515701-1.511043.6896099-.3799031.4380397-.5510032 1.0193922-.468957 1.5933901l.675 4.717h-9.847c-1.6568542 0-3 1.3431458-3 3v4c0 .5522847.4477153 1 1 1s1-.4477153 1-1v-1h11v7c0 5.969-1.138 7.707-1.4 8.04-.5510102.0379144-1.0918013.1677043-1.6.384v-2.424c-.0050532-1.1660584-.4215158-2.2929154-1.176-3.182.7144967-.3230639 1.1742867-1.0338617 1.176-1.818 0-2.209139-1.790861-4-4-4h-9.695l-.305-1.145zm18.153 13h3.694l-.714 5h-2.266zm-1.153-7c-.5522847 0-1-.4477153-1-1s.4477153-1 1-1 1 .4477153 1 1-.4477153 1-1 1zm1 14h15c.5522847 0 1 .4477153 1 1v1h-28v-1c0-.5522847.4477153-1 1-1zm1 4h2v7c0 4.166.531 6.586 1.124 8h-4.248c.593-1.414 1.124-3.834 1.124-8zm5-18c0-.5522847.4477153-1 1-1s1 .4477153 1 1-.4477153 1-1 1-1-.4477153-1-1zm-23.177 26c.1994954-.5599595.228724-1.1664516.084-1.743l-.068-.257h9.161c1.1045695 0 2 .8954305 2 2zm-7.793-15.757c-.08395742-.3474408.02382018-.7132801.28273402-.9597097.25891384-.2464297.62962875-.3360112.97250001-.235.34287126.1010111.60580856.3772689.68976597.7247097l4 14.984c.12978692.5370969-.20040308 1.0777131-.7375 1.2075s-1.07771308-.2004031-1.2075-.7375zm20.141 26.757c.4253536-1.1977017 1.5580112-1.9984494 2.829-2h7.981c.016 0 .032.005.048.005h.015c1.2553782.0182211 2.3666288.8162467 2.785 2zm33.8-26.773-4 15.015c-.1384825.5326025-.6778572.8563163-1.213.728-.5313899-.1321271-.857694-.6670518-.732-1.2l4-15.014c.1295108-.5370969.6699031-.8675108 1.207-.738s.8675108.6699031.738 1.207z"/></g></g></svg>