<svg height="512" viewBox="0 0 64 64" width="512" xmlns="http://www.w3.org/2000/svg"><g id="Franchise"><path d="m61.707 40.293-4-4a1 1 0 0 0 -.707-.293h-16a1 1 0 0 0 -.707.293l-4 4a1 1 0 0 0 -.293.707v6a3 3 0 0 0 2 2.816v11.184a1 1 0 0 0 1 1h20a1 1 0 0 0 1-1v-11.184a3 3 0 0 0 2-2.816v-6a1 1 0 0 0 -.293-.707zm-5.707 6.707a1 1 0 0 1 -2 0v-1h2zm-4 0a1 1 0 0 1 -2 0v-1h2zm-4 0a1 1 0 0 1 -2 0v-1h2zm-4 0a1 1 0 0 1 -2 0v-1h2zm-4 0a1 1 0 0 1 -2 0v-1h2zm-2-3v-2h22v2zm3.414-6h15.172l2 2h-19.172zm1.586 22v-6h4v6zm6 0v-7a1 1 0 0 0 -1-1h-6a1 1 0 0 0 -1 1v7h-1v-10.184a2.989 2.989 0 0 0 1-.6 2.954 2.954 0 0 0 4 0 2.954 2.954 0 0 0 4 0 2.954 2.954 0 0 0 4 0 2.954 2.954 0 0 0 4 0 3.005 3.005 0 0 0 1 .6v10.184zm11-13a1 1 0 0 1 -2 0v-1h2z"/><path d="m56 52h-5a1 1 0 0 0 -1 1v4a1 1 0 0 0 1 1h5a1 1 0 0 0 1-1v-4a1 1 0 0 0 -1-1zm-1 4h-3v-2h3z"/><path d="m27.707 40.293-4-4a1 1 0 0 0 -.707-.293h-16a1 1 0 0 0 -.707.293l-4 4a1 1 0 0 0 -.293.707v6a3 3 0 0 0 2 2.816v11.184a1 1 0 0 0 1 1h20a1 1 0 0 0 1-1v-11.184a3 3 0 0 0 2-2.816v-6a1 1 0 0 0 -.293-.707zm-5.707 6.707a1 1 0 0 1 -2 0v-1h2zm-4 0a1 1 0 0 1 -2 0v-1h2zm-4 0a1 1 0 0 1 -2 0v-1h2zm-4 0a1 1 0 0 1 -2 0v-1h2zm-4 0a1 1 0 0 1 -2 0v-1h2zm-2-3v-2h22v2zm3.414-6h15.172l2 2h-19.172zm1.586 22v-6h4v6zm6 0v-7a1 1 0 0 0 -1-1h-6a1 1 0 0 0 -1 1v7h-1v-10.184a2.989 2.989 0 0 0 1-.6 2.954 2.954 0 0 0 4 0 2.954 2.954 0 0 0 4 0 2.954 2.954 0 0 0 4 0 2.954 2.954 0 0 0 4 0 3.005 3.005 0 0 0 1 .6v10.184zm11-13a1 1 0 0 1 -2 0v-1h2z"/><path d="m22 52h-5a1 1 0 0 0 -1 1v4a1 1 0 0 0 1 1h5a1 1 0 0 0 1-1v-4a1 1 0 0 0 -1-1zm-1 4h-3v-2h3z"/><path d="m44.707 6.293-4-4a1 1 0 0 0 -.707-.293h-16a1 1 0 0 0 -.707.293l-4 4a1 1 0 0 0 -.293.707v6a3 3 0 0 0 2 2.816v11.184a1 1 0 0 0 1 1h20a1 1 0 0 0 1-1v-11.184a3 3 0 0 0 2-2.816v-6a1 1 0 0 0 -.293-.707zm-20.293-2.293h15.172l2 2h-19.172zm-3.414 8h2v1a1 1 0 0 1 -2 0zm5 14v-6h4v6zm6 0v-7a1 1 0 0 0 -1-1h-6a1 1 0 0 0 -1 1v7h-1v-10.184a3.053 3.053 0 0 0 1-.6 2.954 2.954 0 0 0 4 0 2.954 2.954 0 0 0 4 0 2.954 2.954 0 0 0 4 0 2.954 2.954 0 0 0 4 0 3.053 3.053 0 0 0 1 .6v10.184zm-7-13v-1h2v1a1 1 0 0 1 -2 0zm4 0v-1h2v1a1 1 0 0 1 -2 0zm4 0v-1h2v1a1 1 0 0 1 -2 0zm4 0v-1h2v1a1 1 0 0 1 -2 0zm6 0a1 1 0 0 1 -2 0v-1h2zm0-3h-22v-2h22z"/><path d="m39 18h-5a1 1 0 0 0 -1 1v4a1 1 0 0 0 1 1h5a1 1 0 0 0 1-1v-4a1 1 0 0 0 -1-1zm-1 4h-3v-2h3z"/><path d="m45 20h2v2h-2z"/><path d="m49 20h2v2h-2z"/><path d="m53 20h2v2h-2z"/><path d="m53 24h2v2h-2z"/><path d="m53 28h2v2h-2z"/><path d="m53 32h2v2h-2z"/><path d="m17 20h2v2h-2z"/><path d="m13 20h2v2h-2z"/><path d="m9 20h2v2h-2z"/><path d="m9 24h2v2h-2z"/><path d="m9 28h2v2h-2z"/><path d="m9 32h2v2h-2z"/></g></svg>