<?xml version="1.0"?>
<svg xmlns="http://www.w3.org/2000/svg" id="Outline" viewBox="0 0 512 512" width="512" height="512"><path d="M352,32a8,8,0,0,0,0-16H256a8,8,0,0,0-7.978,7.409l-3.04,41.034c-58.48,4.635-104.954,45.786-108.725,96.846A24.037,24.037,0,0,0,120,184v16a8,8,0,0,0,8,8h8.84l31.209,280.884A8,8,0,0,0,176,496H336a8,8,0,0,0,7.951-7.116L375.16,208H384a8,8,0,0,0,8-8V184a24.037,24.037,0,0,0-16.257-22.711c-3.9-52.785-53.434-94.98-114.691-97.19L263.429,32ZM243.785,80.61,237.9,160h-85.47C156.862,118.63,195.266,85.436,243.785,80.61ZM136,184a8.009,8.009,0,0,1,8-8h92.719l-1.185,16H136Zm98.349,24-3.01,40.63c-18.915-4.68-41.63-8.307-74.843-8.608L152.938,208ZM328.84,480H183.16L158.276,256.045c32.223.416,53.516,4.032,71.864,8.774l-14.118,190.59a8,8,0,0,0,7.387,8.57q.3.021.6.021a8,8,0,0,0,7.97-7.409l13.876-187.326c2.6.785,5.191,1.581,7.793,2.381,24.472,7.53,49.727,15.3,96.537,16.255Zm23.118-208.07c-45.43-.761-68.876-7.967-93.605-15.576-3.72-1.145-7.461-2.294-11.289-3.425L250.392,208h108.67ZM376,192H251.577l1.186-16H368a8.009,8.009,0,0,1,8,8Zm-16.434-32H253.948l5.921-79.933C312.269,81.7,354.887,116.284,359.566,160Z"/></svg>
