<svg id="Layer_3" enable-background="new 0 0 64 64" height="512" viewBox="0 0 64 64" width="512" xmlns="http://www.w3.org/2000/svg"><g><path d="m50.906 17.086c-2.373-1.054-3.906-3.413-3.906-6.011v-.259c1.161-.414 2-1.514 2-2.816v-4c0-1.654-1.346-3-3-3h-28c-1.654 0-3 1.346-3 3v4c0 1.302.839 2.402 2 2.816v.26c0 2.598-1.533 4.957-3.906 6.011-3.094 1.374-5.094 4.451-5.094 7.838v31.075c0 3.859 3.14 7 7 7h34c3.86 0 7-3.141 7-7v-31.075c0-3.387-2-6.464-5.094-7.839zm-31.906-6.086h26v.075c0 .942.169 1.854.459 2.718l-2.338.779c-.853.284-1.74.428-2.635.428h-.283c-1.288 0-2.576-.304-3.785-.909-1.426-.714-3.024-1.091-4.621-1.091h-.594c-1.597 0-3.195.377-4.681 1.12-2.1 1.052-4.636 1.157-6.819.284l-1.21-.484c.318-.901.507-1.856.507-2.845zm-2-7c0-.552.449-1 1-1h28c.551 0 1 .448 1 1v4c0 .552-.449 1-1 1h-1v-4h-2v4h-2v-4h-2v4h-2v-4h-2v4h-2v-4h-2v4h-2v-4h-2v4h-2v-4h-2v4h-2v-4h-2v4h-1c-.551 0-1-.448-1-1zm37 52c0 2.757-2.243 5-5 5h-34c-2.757 0-5-2.243-5-5v-31.075c0-2.598 1.533-4.957 3.906-6.011 1.555-.691 2.832-1.812 3.719-3.186l1.335.534c2.709 1.083 5.804.975 8.517-.382 1.149-.576 2.438-.88 3.726-.88h.594c1.288 0 2.576.304 3.785.909 1.426.714 3.024 1.091 4.621 1.091h.283c1.11 0 2.209-.178 3.267-.53l2.56-.854c.889 1.423 2.185 2.589 3.781 3.298 2.373 1.054 3.906 3.413 3.906 6.011z"/><path d="m47.289 19.896c-2.221-1.12-4.804-1.197-7.087-.21-2.578 1.112-4.616 3.15-5.74 5.737l-.382.882c-.626 1.441-1.337 2.852-2.084 4.239-.742-1.38-1.443-2.787-2.074-4.239l-.383-.882c-1.124-2.587-3.162-4.625-5.74-5.737-2.283-.987-4.866-.909-7.086.209-2.011 1.014-3.51 2.754-4.22 4.9-.697 2.106-.649 4.411.136 6.488l2.806 7.42c1.049 2.773 2.428 5.369 4.078 7.767-.714.99-1.204 2.126-1.406 3.342-.415 2.507.403 5.076 2.188 6.873 1.488 1.499 3.46 2.315 5.527 2.315.33 0 .661-.021.993-.062 1.788-.225 3.528-.71 5.185-1.423 1.653.712 3.401 1.199 5.186 1.423.333.042.665.062.994.062 2.067 0 4.04-.816 5.527-2.314 1.785-1.798 2.603-4.367 2.188-6.874-.201-1.213-.7-2.353-1.412-3.343 1.663-2.415 3.045-5.018 4.085-7.766l2.806-7.42c.785-2.077.833-4.381.136-6.488-.712-2.146-2.211-3.886-4.221-4.899zm-2.255 1.289c.231.394.432.805.576 1.24.554 1.673.516 3.503-.108 5.152l-2.806 7.42c-.834 2.205-1.906 4.314-3.171 6.301-.999-1.115-1.94-2.273-2.842-3.461.707-1.339 1.35-2.721 1.885-4.134l2.806-7.42c.616-1.628.777-3.358.487-5.055 1.041-.281 2.13-.299 3.173-.043zm-9.12 5.918.382-.882c.763-1.757 2.046-3.197 3.663-4.159.123 1.186-.028 2.381-.457 3.515l-2.806 7.42c-.39 1.031-.849 2.04-1.339 3.033-.777-1.114-1.507-2.26-2.201-3.431 1.008-1.78 1.943-3.621 2.758-5.496zm-8.21-.882.383.882c3.26 7.507 7.966 14.109 13.987 19.623.974.892 1.63 2.104 1.846 3.413.055.335.071.67.069 1.004-1.503-.518-2.928-1.231-4.241-2.146-5.682-3.963-9.984-9.495-12.444-15.999l-2.806-7.42c-.429-1.133-.58-2.329-.457-3.515 1.617.961 2.9 2.401 3.663 4.158zm-5.563-4.993c-.29 1.698-.129 3.427.487 5.056l2.806 7.42c2.603 6.883 7.157 12.738 13.171 16.933 1.551 1.081 3.243 1.906 5.031 2.49-.091.251-.199.495-.323.732-.617.126-1.245.174-1.877.096-2.749-.346-5.407-1.368-7.687-2.958-5.682-3.963-9.984-9.495-12.444-15.999l-2.806-7.42c-.624-1.649-.662-3.479-.108-5.152.144-.435.345-.846.577-1.241 1.041-.256 2.131-.239 3.173.043zm.239 28.903c-.763.399-1.555.739-2.369 1.02-.003-.337.013-.675.069-1.012.113-.684.355-1.33.688-1.926.514.658 1.054 1.296 1.612 1.918zm-1.692 3.727c-.123-.235-.231-.477-.321-.726 1.196-.391 2.348-.9 3.447-1.518.578.574 1.178 1.125 1.796 1.661-.992.315-2.009.549-3.045.679-.632.079-1.26.031-1.877-.096zm5.876 3.096c-1.442.181-2.86-.183-4.029-.998.093-.008.186-.006.279-.018 1.584-.199 3.131-.606 4.614-1.189.391.297.771.605 1.176.887.322.225.651.439.986.643-.986.313-1.996.546-3.026.675zm10.871 0c-2.749-.346-5.407-1.368-7.687-2.958-5.682-3.963-9.984-9.495-12.444-15.999l-2.806-7.42c-.624-1.649-.662-3.479-.108-5.152.366-1.105 1.022-2.049 1.869-2.797-.438 1.871-.314 3.85.369 5.656l2.806 7.42c2.603 6.883 7.157 12.738 13.171 16.933 2.544 1.774 5.512 2.916 8.581 3.302.094.012.187.009.28.018-1.169.814-2.587 1.179-4.031.997zm12.066-26.377-2.806 7.42c-.926 2.447-2.143 4.771-3.594 6.942-.746-.694-1.468-1.406-2.171-2.135 1.463-2.227 2.693-4.606 3.636-7.101l2.806-7.42c.683-1.806.807-3.785.369-5.656.846.747 1.503 1.692 1.868 2.797.555 1.674.516 3.504-.108 5.153z"/></g></svg>