<?xml version="1.0"?>
<svg xmlns="http://www.w3.org/2000/svg" id="outline" viewBox="0 0 512 512" width="512" height="512"><path d="M118.168,463.78711l136,32a7.98923,7.98923,0,0,0,3.66406,0l136-32A7.99845,7.99845,0,0,0,400,456V416h40a8.00091,8.00091,0,0,0,7.88184-6.62891l32-184a8.01025,8.01025,0,0,0-.33789-4.0332l-48-136a7.99736,7.99736,0,0,0-5.60352-5.09863L332.561,56.89453,302.24707,19.002a8.004,8.004,0,0,0-6.167-3.002H215.91992a8.004,8.004,0,0,0-6.167,3.002L179.439,56.89453,86.05957,80.23926a7.99736,7.99736,0,0,0-5.60352,5.09863l-48,136a8.01025,8.01025,0,0,0-.33789,4.0332l32,184A8.00091,8.00091,0,0,0,72,416h40v40A7.99845,7.99845,0,0,0,118.168,463.78711ZM256,59.50439,233.07983,32h45.84058ZM400,400V376h37.44531l-4.17383,24Zm63.75977-175.30957L440.228,360H400V176H384V449.66406L264,477.89893V91.31445l26.34277,26.34278A8.00364,8.00364,0,0,0,295.999,120c.2627,0,.52637-.0127.78907-.03906a7.99891,7.99891,0,0,0,5.86816-3.52344l28.873-43.30933,86.3584,21.5896ZM318.09863,64.42969,294.75684,99.44336l-27.9336-27.93457L295.874,36.64844ZM216.126,36.64844l29.05078,34.86035-27.9336,27.93457L193.90137,64.42969ZM94.1123,94.71777l86.3584-21.5896,28.87305,43.30933a7.99891,7.99891,0,0,0,5.86816,3.52344q.39552.03954.78907.03906a8.00364,8.00364,0,0,0,5.65625-2.34277L248,91.31445V477.89893L128,449.66406V176H112V360H71.772L48.24023,224.69043ZM74.55469,376H112v24H78.72852Z"/><path d="M288,168a8.00039,8.00039,0,0,0-8,8v64a8.00039,8.00039,0,0,0,8,8h64a8.00039,8.00039,0,0,0,8-8V176a8.00039,8.00039,0,0,0-8-8Zm56,64H296V184h48Z"/></svg>
