<svg height="512" viewBox="0 0 60 60" width="512" xmlns="http://www.w3.org/2000/svg"><g id="Page-1" fill="none" fill-rule="evenodd"><g id="029---Chips" fill="rgb(0,0,0)" fill-rule="nonzero"><path id="Shape" d="m57 29h-.278c.227361-.5421885.3950155-1.1075195.5-1.686.559-2.972-.814-4.548-2.248-4.74-3.028-.505-3.915 1.028-6.407.768.4533351-.5529213.8347115-1.1611075 1.135-1.81.9290913-.1435325 1.8409109-.3824621 2.721-.713 1.274729-.4633503 2.3343894-1.3795632 2.977-2.574.7802042-1.6194968.8167094-3.49842.1-5.147-.3363848-1.2046506-1.1418374-2.2240741-2.236-2.83-2.131-.99-3.972.947-5.58 2.666-.519226.5353063-1.1422846.9589589-1.831 1.245-1.638.626-4.3.258-5.043.26.7913289-.7213407 1.4302192-1.5938222 1.879-2.566.9251108-.1349448 1.8334482-.3668892 2.71-.692 2.51-.9 4.554-3.7 3.115-7.7-.3301619-1.20638967-1.1301619-2.23007262-2.221-2.842-.6138487-.310175-1.3242959-.36934905-1.981-.165-.6762458.25503628-1.3126554.60522991-1.89 1.04-.6315855.52483473-1.2085165 1.11215183-1.722 1.753-.5258328.53240771-1.1527808.95433968-1.844 1.241-3.148 1.082-4.642-.552-7.9.791-.0899845-1.04892433-.3151838-2.08181638-.67-3.073-.3852912-1.10468009-1.3349146-1.91678762-2.486-2.126-2.2034185-.29780913-4.4157882.48081703-5.947 2.093-.9724735 1.05524657-2.1488478 1.90231774-3.458 2.49-2.28.725-3.955-.686-6.777.322-.963.34-2.487 1.82-1.37 4.986.4983896 1.729862 1.7253957 3.1569274 3.361 3.909.6568687.2731311 1.3616135.4125163 2.073.41.6352603.0002186 1.2659269-.1076542 1.865-.319.593659-.2110031 1.1731807-.4598467 1.735-.745-.03.119-.075.221-.1.346-.1688685.7597018-.218128 1.5411058-.146 2.316-.9275786.6409325-1.9586644 1.1172346-3.048 1.408-2.252.41-4.495-1.422-6.59-.744-1.312.188-2.48 1.467-2.377 3.714-1.28568822-.3895869-2.66568867-.3299856-3.913.169-.97795015.4323297-1.67878405 1.3203522-1.872 2.372-.52555989 2.1432449-.26697742 4.4038019.729 6.373-1.35631557.5047172-2.15748536 1.9073048-1.90325461 3.3319795s1.49108093 2.4635812 2.93825461 2.4680205h.18l4.2 20.981c.47190844 2.3327526 2.51900315 4.0121307 4.899 4.019h35.442c2.3803729-.0063952 4.4280159-1.6858804 4.9-4.019l4.199-20.981h.18c1.6568542 0 3-1.3431458 3-3s-1.3431458-3-3-3zm-6.218 0c.8611937-1.0345884 1.6516529-2.1260636 2.366-3.267 1.411-2.188 2.55-1.134 2.109 1.217-.1181739.7323605-.3908832 1.4311782-.8 2.05zm.358-3.9.046-.015c-.8944215 1.4278625-1.958134 2.7423937-3.168 3.915h-8.618c-.9120502-.9953505-1.4083611-2.3021475-1.387-3.652-.0175827-.7538451.0451035-1.5074212.187-2.248.022226-.1379259.0675265-.2711227.134-.394.2503327-.3821528.6520845-.6390702 1.104-.706 1.3834846-.2185286 2.7964055.1340701 3.915.977 1.3836387 1.0678042 2.9645578 1.8518069 4.652 2.307 1.0462656.1607988 2.1147284.0980884 3.135-.184zm-35.262 3.9c.6930693-.8329573 1.3349172-1.707233 1.922-2.618.6793818.3055348 1.4037571.4990393 2.145.573-.49646.5689803-.7836514 1.2904868-.814 2.045zm5.222-12.813v-.021c-.1408204-.7166319-.1271837-1.4550561.04-2.166.0871967-.4994035.2673121-.9780153.531-1.411.393-.612.815-.592.859-.59h.012c.782.255.872.943 1.009 1.676.2982576 1.8325109.7962236 3.6268652 1.485 5.351-.4311258-.0447637-.859684-.1115174-1.284-.2-1.3392912-.2568402-2.3885817-1.3009871-2.652-2.639zm12.55-1.319c2.012-.526 5.092.384 4.729 2.06-.2402954 1.5267511-.9231512 2.9494833-1.964 4.092-1.0509039.9921554-2.4556648 1.5216422-3.9 1.47-2.10767.1545511-4.0923144-1.0068039-4.99-2.92-.9482592-1.7962193-1.5948758-3.736069-1.914-5.742.8475092.6669812 1.8282411 1.1443889 2.876 1.4 1.7280362.2384871 3.4867568.1159044 5.165-.36zm2.042 8.993c.194211.4833827.2985871.9981468.308 1.519-.0057622 1.1474646-.677931 2.1869452-1.722 2.663-.323.151-.624.275-.9.377.1868201-1.3245974.2474255-2.6639432.181-4 .7345315-.0843748 1.4533679-.2725854 2.135-.559zm-7.08-12.475c.3234433.6949589.7218041 1.3525225 1.188 1.961-.3013277-.0042976-.6020172-.029021-.9-.074-.6261509-.1651662-1.2196244-.4356954-1.755-.8.5233661-.3134941 1.0147188-.6775707 1.467-1.087zm-1.058 11.369c.5029522.4549548 1.0725398.8302958 1.689 1.113-.1903055.1422534-.3908502.2702678-.6.383-.8509463.3226211-1.7471006.5102197-2.656.556.6472185-.5789175 1.1789236-1.2751899 1.567-2.052zm-6.412 6.245c.0830469-.4790091.3550939-.9045554.755-1.181.8474067-.6448455 1.8851846-.9895989 2.95-.98 1.5853807.0824603 3.1696393-.1823791 4.642-.776.7811195-.404133 1.4781879-.9532356 2.054-1.618h.018c.0897233 1.5266032-.0239394 3.0583593-.338 4.555zm15.6-.358c.057.12.111.242.175.358h-.537c.12-.113.245-.23.361-.358zm16.878-14.858c.50865 1.1230924.50865 2.4109076 0 3.534-.4088955.753931-1.0803881 1.3314787-1.887 1.623-.455.166-.865.291-1.227.386.4260453-1.8030727.6530691-3.6474307.677-5.5.012-.338.02-.6.038-.754.161-1.334 1.502-1.758 2.399.711zm-7.091 2.277c.9860676-.3938755 1.8763603-.9943372 2.611-1.761l.027-.031c-.021899 2.0281109-.3780073 4.0387377-1.054 5.951-.3383004.8992866-.8796989 1.7083044-1.582 2.364-.6929197-.3393807-1.3516151-.7445771-1.967-1.21-1.4603813-1.0826285-3.2706017-1.5847152-5.08-1.409.5374823-1.1001151.8476614-2.2972977.912-3.52 1.044-.078 3.824.455 6.133-.384zm.1-11.9c1.048 2.908-.374 4.587-1.911 5.141-.4046241.14750798-.8164896.27433852-1.234.38.4389023-1.79556149.6790122-3.63394475.716-5.482.016-.347.026-.616.046-.784.0383912-.43854706.2977706-.82723922.688-1.031l.045-.021c.191-.031.997-.038 1.651 1.795zm-12.267 2.6c1.7291284.24662876 3.4910336.11977977 5.167-.372.9847539-.39329705 1.8764722-.98800301 2.618-1.746l.028-.032c-.0340479 2.0277872-.4023239 4.03607397-1.09 5.944-.451141 1.311349-1.3793456 2.4048454-2.6 3.063-1.6249281-.9075152-3.5370865-1.1539219-5.339-.688-.279.073-.529.118-.785.17-1.1154983-.9615983-1.9407399-2.2152176-2.383-3.62-.021564-.05742172-.0392701-.11621915-.053-.176-.0966827-.57735691.1576969-1.15716966.648-1.477 1.0782351-.83137382 2.4366136-1.21272337 3.79-1.064zm-18.437.109c1.0524941.12087259 2.1186464.01865281 3.129-.3 1.6089395-.68295565 3.0532322-1.70207532 4.236-2.989 1.0530965-1.11261315 2.5613866-1.67591484 4.086-1.526.4677857.06592002.8603251.38603801 1.019.831.4551282 1.18481383.6459097 2.45475666.559 3.721-.7161761.68353541-1.1006885 1.64408696-1.054 2.633-.6669612.7986348-1.5008598 1.4413818-2.443 1.883-1.633-1.123-3.457-1.661-4.901-.291-.0232662-.0187846-.0476438-.0361494-.073-.052-1.7398808-1.04324377-3.2963221-2.36556007-4.607-3.914zm.951 5.235c-.8083579.2894417-1.694908.2716466-2.491-.05-1.1084454-.5436579-1.9290204-1.5384047-2.252-2.73-.656-1.857 0-2.347.16-2.435.4441107-.10041374.9086609.0344191 1.23.357.114.109.284.3.5.55 1.2020917 1.41743166 2.5569616 2.6978509 4.04 3.818-.334.162-.731.329-1.186.492zm-3.651 7c1.0177995.2808211 2.0835969.3425126 3.127.181 1.1494681-.2804063 2.2466688-.7429186 3.25-1.37.7396808 1.4831159 2.120325 2.5436748 3.744 2.876.8958453.189833 1.8083135.2903251 2.724.3-.7596112 2.1061854-2.6459448 3.6009208-4.87 3.859-1.1413663.147221-2.2978985-.1161266-3.263-.743-1.893-1.062-3.583-3.308-4.765-5.121zm-3.611-.539c.908-.053 1.247.632 1.6 1.181.9667427 1.5755301 2.1020947 3.0411602 3.386 4.371-.36.105-.776.209-1.248.3-.9233984.1738937-1.8779627-.029817-2.6499296-.5655135-.77196689-.5356965-1.29683647-1.35862-1.4570704-2.2844865-.258-.857-.48-2.76.37-3.005zm-6.414 4.634c.07043543-.4192404.35486686-.7711769.75-.928 1.17272295-.3823646 2.45061316-.2704273 3.539.31.67158578 2.3034413 2.7786712 3.8904698 5.178 3.9.3556911.0000593.7105954-.0334222 1.06-.1.6848216-.1295545 1.3597882-.3066497 2.02-.53-.7559982 1.139698-1.6320038 2.1950618-2.613 3.148h-8.848c-1.196-1.355-1.558-3.254-1.086-5.8zm6.137 32.388-4.117-20.588h7.927l3.68 23h-4.548c-1.4291323-.0030241-2.65883672-1.0111977-2.942-2.412zm35.49-20.588-3.68 23h-6.064l1.84-23zm-11.75 23h-6.154l-1.84-23h9.834zm-10-23 1.84 23h-6.064l-3.68-23zm27.586 20.588c-.2831633 1.4008023-1.5128677 2.4089759-2.942 2.412h-4.548l3.68-23h7.927zm6.337-22.588h-54c-.55228475 0-1-.4477153-1-1s.44771525-1 1-1h54c.5522847 0 1 .4477153 1 1s-.4477153 1-1 1z"/></g></g></svg>