<?xml version="1.0" encoding="iso-8859-1"?>
<!-- Generator: Adobe Illustrator 19.0.0, SVG Export Plug-In . SVG Version: 6.00 Build 0)  -->
<svg version="1.1" id="Capa_1" xmlns="http://www.w3.org/2000/svg" xmlns:xlink="http://www.w3.org/1999/xlink" x="0px" y="0px"
	 viewBox="0 0 511.998 511.998" style="enable-background:new 0 0 511.998 511.998;" xml:space="preserve">
<g>
	<g>
		<path d="M497.404,130.211c-2.469-4.938-8.474-6.94-13.415-4.471c-4.938,2.47-6.941,8.476-4.471,13.415
			c22.739,45.478,13.841,100.209-22.141,136.19c-46.002,46.002-120.853,46.002-166.855,0s-46.002-120.853,0-166.854
			c34.296-34.296,85.27-44.139,129.862-25.073c5.078,2.172,10.953-0.186,13.124-5.263c2.171-5.077-0.186-10.954-5.263-13.124
			c-25.051-10.711-52.503-13.756-79.391-8.805c-18.785,3.458-36.412,10.698-52.031,21.253
			c-6.679-13.704-15.561-26.148-26.474-37.061c-17.01-17.01-38.205-29.313-61.294-35.58c-22.382-6.076-46.136-6.415-68.697-0.984
			c-3.651,0.879-6.501,3.729-7.38,7.38c-5.432,22.56-5.091,46.314,0.984,68.697c4.659,17.15,12.652,33.252,23.424,47.374
			c-3.655,0.57-7.293,1.281-10.904,2.15c-3.651,0.879-6.501,3.729-7.38,7.38c-5.432,22.56-5.091,46.314,0.984,68.697
			c6.268,23.089,18.572,44.284,35.58,61.294c26.076,26.075,61.355,40.405,97.671,40.402c7.352,0,14.753-0.596,22.122-1.793
			c22.891,15.899,50.031,24.465,78.491,24.465c36.856,0,71.506-14.352,97.568-40.414C513.594,247.408,523.997,183.4,497.404,130.211
			z M151.122,21.993c38.385-7.192,77.272,4.748,105.089,32.565c10.386,10.385,18.614,22.382,24.488,35.672
			c-1.462,1.343-2.905,2.71-4.315,4.12c-6.634,6.634-12.447,13.784-17.446,21.318l-63.595-63.595
			c-3.904-3.904-10.236-3.904-14.141,0c-3.904,3.904-3.904,10.236,0,14.141l67.592,67.592c-1.327,2.865-2.545,5.769-3.664,8.701
			c-19.257-10.516-40.902-16.225-62.777-16.8C155.498,97.993,144.046,59.756,151.122,21.993z M189.808,252.684
			c-27.815-27.814-39.756-66.697-32.566-105.081c28.081-5.193,57.553,0.008,82.01,14.575c-3.733,17.04-4.209,34.653-1.442,51.842
			l-36.344-36.344c-3.904-3.904-10.236-3.904-14.141,0c-3.904,3.904-3.904,10.236,0,14.141l64.314,64.314
			c0.106,0.106,0.221,0.198,0.33,0.298c5.811,11.003,13.211,21.377,22.201,30.784C242.817,287.437,212.301,275.18,189.808,252.684z"
			/>
	</g>
</g>
<g>
	<g>
		<path d="M298.391,495.738l-34.782-43.999c-18.382-23.254-36.014-47.563-52.406-72.251c-3.056-4.602-9.26-5.853-13.861-2.8
			c-4.6,3.056-5.853,9.261-2.799,13.86c16.697,25.146,34.655,49.905,53.378,73.591l19.826,25.082l-13.139-1.528
			c-63.968-7.442-122.661-38.135-165.268-86.424l-1.765-2c-38.996-44.195-62.297-99.518-66.771-157.618l5.03-4.228
			c4.775-4.013,11.053-5.812,17.23-4.927l13.855,1.979c4.215,0.603,8.352-1.532,10.303-5.319
			c4.584-8.898,14.603-13.567,24.366-11.355l10.377,2.352c15.09,34.764,32.123,69.08,50.711,102.064
			c2.712,4.81,8.81,6.511,13.62,3.802c4.811-2.712,6.513-8.81,3.802-13.62c-19.073-33.842-36.502-69.109-51.802-104.817
			c-11.363-26.523-37.351-43.661-66.206-43.661c-2.135,0-4.235,0.144-6.304,0.395c1.294-20.319,9.804-39.247,24.33-53.774
			c3.904-3.904,3.904-10.236,0-14.14s-10.236-3.904-14.14,0c-19.591,19.591-30.381,45.64-30.381,73.346v1.44
			C10.293,180.266,0.006,196.944,0,215.987v4.977c-0.002,5.465,0.17,10.914,0.477,16.343c0.001,0.362,0.021,0.724,0.062,1.085
			C4.404,302.559,29.629,363.82,72.581,412.5l1.765,2c45.878,51.994,109.076,85.042,177.951,93.055l37.094,4.315
			c0.388,0.046,0.774,0.067,1.159,0.067c3.592,0,6.949-1.939,8.729-5.127C301.249,503.279,300.899,498.909,298.391,495.738z
			 M19.998,215.994c0.006-17.688,14.402-32.078,32.093-32.078c13.129,0,25.434,4.915,34.796,13.339
			c-13.09-0.052-25.538,6.051-33.509,16.514l-7.485-1.069c-8.968-1.281-18.047,0.4-25.896,4.643V215.994z"/>
	</g>
</g>
<g>
	<g>
		<path d="M192.316,350.019l-0.167-0.271c-2.886-4.709-9.043-6.185-13.749-3.299c-4.708,2.887-6.186,9.042-3.3,13.75l0.167,0.271
			c1.887,3.079,5.17,4.774,8.534,4.774c1.782,0,3.586-0.476,5.215-1.475C193.725,360.883,195.203,354.727,192.316,350.019z"/>
	</g>
</g>
<g>
	<g>
		<path d="M473.03,95.885c-0.5-0.516-1.003-1.027-1.512-1.536c-3.904-3.904-10.236-3.904-14.141,0
			c-3.904,3.904-3.904,10.236,0,14.141c0.437,0.435,0.868,0.873,1.295,1.313c1.961,2.023,4.568,3.04,7.18,3.04
			c2.507,0,5.016-0.937,6.958-2.82C476.776,106.179,476.874,99.849,473.03,95.885z"/>
	</g>
</g>
<g>
	<g>
		<path d="M373.951,89.931c-56.236,0-101.986,45.751-101.986,101.986s45.751,101.986,101.986,101.986
			s101.986-45.751,101.986-101.986S430.187,89.931,373.951,89.931z M298.481,223.945c-4.194-9.845-6.519-20.669-6.519-32.028
			c0-11.359,2.325-22.183,6.518-32.027l55.474,32.028L298.481,223.945z M363.953,273.274c-22.585-2.76-42.363-14.72-55.443-32.03
			l55.443-32.01V273.274z M363.953,174.598l-55.443-32.01c13.079-17.309,32.858-29.269,55.443-32.03V174.598z M383.949,110.56
			c22.585,2.76,42.363,14.72,55.443,32.03l-55.443,32.01V110.56z M383.95,273.274v-64.039l55.443,32.01
			C426.312,258.554,406.534,270.514,383.95,273.274z M393.949,191.918l55.474-32.028c4.192,9.844,6.518,20.668,6.518,32.027
			c0,11.358-2.325,22.183-6.519,32.028L393.949,191.918z"/>
	</g>
</g>
<g>
	<g>
		<path d="M362.467,360.996c-9.419-13.229-22.271-20.514-36.189-20.514s-26.77,7.285-36.189,20.514
			c-8.687,12.199-13.47,28.247-13.47,45.186s4.784,32.987,13.47,45.185c9.419,13.228,22.271,20.514,36.189,20.514
			c13.918,0,26.77-7.285,36.189-20.514c8.687-12.198,13.47-28.246,13.47-45.185S371.153,373.196,362.467,360.996z M326.278,451.884
			c-4.631,0-11.634-9.837-11.634-24.664c0-14.826,7.003-24.663,11.634-24.663s11.634,9.837,11.634,24.663
			C337.912,442.048,330.909,451.884,326.278,451.884z M355.78,410.835c-4.538-16.704-15.883-28.274-29.501-28.274
			c-13.618,0-24.963,11.569-29.501,28.274c-0.106-1.533-0.161-3.085-0.161-4.652c-0.001-24.774,13.582-45.703,29.661-45.703
			c16.079,0,29.663,20.93,29.663,45.703C355.941,407.75,355.886,409.302,355.78,410.835z"/>
	</g>
</g>
<g>
	<g>
		<path d="M511.125,459.974c-2.484-14.768-10.449-29.498-22.427-41.477c-11.977-11.977-26.707-19.942-41.477-22.427
			c-16.015-2.691-30.254,1.244-40.095,11.086c-9.842,9.842-13.779,24.081-11.086,40.096c2.485,14.769,10.449,29.498,22.427,41.475
			c11.978,11.977,26.707,19.942,41.477,22.427c3.291,0.554,6.504,0.827,9.623,0.827c12.056-0.001,22.654-4.092,30.473-11.911
			C509.882,490.227,513.819,475.988,511.125,459.974z M436.021,477.778c-1.162-1.016-2.301-2.08-3.412-3.19
			c-9.064-9.065-15.047-19.949-16.848-30.653c-1.591-9.458,0.364-17.498,5.505-22.638c3.974-3.976,9.68-6.045,16.436-6.045
			c1.982,0,4.056,0.179,6.202,0.54c10.704,1.8,21.59,7.783,30.653,16.847c1.109,1.109,2.167,2.245,3.176,3.404
			c-15.02-8.601-31.223-8.76-40.853,0.868C427.249,446.543,427.411,462.753,436.021,477.778z M485.901,485.93
			c-3.276,3.277-15.185,1.271-25.668-9.213c-10.484-10.484-12.488-22.392-9.213-25.667c0.936-0.936,2.574-1.44,4.682-1.44
			c5.276,0,13.495,3.163,20.985,10.653c5.165,5.164,8.875,11.359,10.18,16.996C487.774,481.176,487.412,484.418,485.901,485.93z"/>
	</g>
</g>
<g>
	<g>
		<path d="M483.006,323.893c-1.86-1.86-4.439-2.93-7.069-2.93c-2.63,0-5.208,1.07-7.069,2.93c-1.86,1.86-2.93,4.439-2.93,7.069
			s1.07,5.209,2.93,7.068c1.86,1.86,4.439,2.931,7.069,2.931c2.63,0,5.209-1.07,7.069-2.931c1.86-1.859,2.93-4.438,2.93-7.068
			S484.866,325.753,483.006,323.893z"/>
	</g>
</g>
<g>
	<g>
		<path d="M421.014,343.412c-1.86-1.86-4.439-2.931-7.069-2.931c-2.63,0-5.208,1.07-7.069,2.931c-1.86,1.859-2.93,4.438-2.93,7.068
			c0,2.63,1.07,5.209,2.93,7.069c1.86,1.86,4.439,2.93,7.069,2.93c2.63,0,5.209-1.069,7.069-2.93c1.86-1.861,2.93-4.439,2.93-7.069
			C423.944,347.85,422.874,345.271,421.014,343.412z"/>
	</g>
</g>
<g>
	<g>
		<path d="M460.649,355.879c-1.86-1.86-4.439-2.93-7.069-2.93c-2.63,0.001-5.209,1.07-7.069,2.93s-2.93,4.429-2.93,7.069
			c0,2.63,1.07,5.209,2.93,7.068c1.86,1.86,4.439,2.931,7.069,2.931s5.209-1.07,7.069-2.931c1.87-1.859,2.93-4.438,2.93-7.068
			C463.578,360.308,462.519,357.739,460.649,355.879z"/>
	</g>
</g>
<g>
</g>
<g>
</g>
<g>
</g>
<g>
</g>
<g>
</g>
<g>
</g>
<g>
</g>
<g>
</g>
<g>
</g>
<g>
</g>
<g>
</g>
<g>
</g>
<g>
</g>
<g>
</g>
<g>
</g>
</svg>
